<svg width="24" height="24" viewBox="0 0 24 24" fill="none" xmlns="http://www.w3.org/2000/svg">
<path d="M13 1.5C11.6739 2.82608 10.9289 4.62464 10.9289 6.5C10.9289 8.37536 11.6739 10.1739 13 11.5C14.3261 12.8261 16.1246 13.5711 18 13.5711C19.8754 13.5711 21.6739 12.8261 23 11.5C23 13.4778 22.4135 15.4112 21.3147 17.0557C20.2159 18.7002 18.6541 19.9819 16.8268 20.7388C14.9996 21.4957 12.9889 21.6937 11.0491 21.3078C9.10929 20.922 7.32746 19.9696 5.92894 18.5711C4.53041 17.1725 3.578 15.3907 3.19215 13.4509C2.8063 11.5111 3.00433 9.50042 3.76121 7.67316C4.51809 5.8459 5.79981 4.28412 7.4443 3.1853C9.08879 2.08649 11.0222 1.5 13 1.5Z" stroke="#9ABA8E" stroke-linecap="round" stroke-linejoin="round"/>
</svg>
