<svg width="24" height="24" viewBox="0 0 24 24" fill="none" xmlns="http://www.w3.org/2000/svg">
<path d="M14 4C14 2.9 14.9 2 16 2" stroke="#FFF3F3" stroke-linecap="round" stroke-linejoin="round"/>
<path d="M20 2C21.1 2 22 2.9 22 4" stroke="#FFF3F3" stroke-linecap="round" stroke-linejoin="round"/>
<path d="M22 8C22 9.1 21.1 10 20 10" stroke="#FFF3F3" stroke-linecap="round" stroke-linejoin="round"/>
<path d="M16 10C14.9 10 14 9.1 14 8" stroke="#FFF3F3" stroke-linecap="round" stroke-linejoin="round"/>
<path d="M3 7L6 10L9 7" stroke="#FFF3F3" stroke-linecap="round" stroke-linejoin="round"/>
<path d="M6 10V5C6 3.3 7.3 2 9 2H10" stroke="#FFF3F3" stroke-linecap="round" stroke-linejoin="round"/>
<path d="M8 14H4C2.89543 14 2 14.8954 2 16V20C2 21.1046 2.89543 22 4 22H8C9.10457 22 10 21.1046 10 20V16C10 14.8954 9.10457 14 8 14Z" stroke="#FFF3F3" stroke-linecap="round" stroke-linejoin="round"/>
</svg>
