<svg width="24" height="24" viewBox="0 0 24 24" fill="none" xmlns="http://www.w3.org/2000/svg">
<path d="M14.3801 6.37272C14.1818 6.57506 14.0707 6.84709 14.0707 7.13042C14.0707 7.41375 14.1818 7.68578 14.3801 7.88811L16.112 9.61999C16.3144 9.81832 16.5864 9.92941 16.8697 9.92941C17.153 9.92941 17.4251 9.81832 17.6274 9.61999L21.7082 5.53925C22.2524 6.74203 22.4172 8.08212 22.1806 9.38093C21.9439 10.6797 21.3171 11.8756 20.3836 12.8091C19.4501 13.7426 18.2542 14.3695 16.9554 14.6061C15.6566 14.8428 14.3165 14.678 13.1137 14.1337L5.63416 21.6132C5.20354 22.0439 4.61951 22.2858 4.01052 22.2858C3.40154 22.2858 2.8175 22.0439 2.38689 21.6132C1.95627 21.1826 1.71436 20.5986 1.71436 19.9896C1.71436 19.3806 1.95627 18.7966 2.38689 18.366L9.86644 10.8864C9.32216 9.68365 9.15736 8.34356 9.39401 7.04475C9.63065 5.74594 10.2575 4.55009 11.191 3.61657C12.1245 2.68305 13.3204 2.0562 14.6192 1.81955C15.918 1.5829 17.2581 1.7477 18.4609 2.29198L14.391 6.3619L14.3801 6.37272Z" stroke="#6B8362" stroke-linecap="round" stroke-linejoin="round"/>
</svg>
